<?xml version="1.0" standalone="no"?>
<!DOCTYPE svg PUBLIC "-//W3C//DTD SVG 20010904//EN"
 "http://www.w3.org/TR/2001/REC-SVG-20010904/DTD/svg10.dtd">
<svg version="1.0" xmlns="http://www.w3.org/2000/svg"
 width="400.000000pt" height="402.000000pt" viewBox="0 0 400.000000 402.000000"
 preserveAspectRatio="xMidYMid meet">

<g transform="translate(0.000000,402.000000) scale(0.100000,-0.100000)"
fill="#000000" stroke="none">
<path d="M11 2723 c2 -714 6 -1431 10 -1593 5 -162 9 -470 11 -685 l3 -390
1983 -3 1982 -2 0 1985 0 1985 -1996 0 -1995 0 2 -1297z m2109 432 c0 -8 -13
-47 -29 -87 -109 -276 -120 -564 -30 -753 48 -102 91 -135 173 -135 49 0 117
-41 223 -134 l61 -54 74 19 c143 37 417 57 531 39 231 -37 389 -137 427 -271
14 -50 -1 -56 -150 -63 -170 -7 -305 -33 -359 -69 -136 -90 -126 -222 35 -479
110 -174 149 -279 111 -294 -18 -6 -134 37 -206 78 -166 93 -327 258 -418 429
-16 30 -33 60 -37 67 -9 15 -90 -25 -170 -85 -86 -64 -160 -90 -311 -109 l-60
-7 35 -12 c41 -14 50 -43 25 -81 -30 -46 -73 -64 -152 -64 -70 0 -73 -1 -73
-23 0 -54 -30 -123 -72 -165 -57 -58 -73 -60 -145 -18 -120 70 -214 200 -258
356 l-21 75 -66 3 -66 3 -21 -43 c-53 -109 -246 -348 -281 -348 -52 0 -69 235
-29 392 11 44 19 87 17 95 -2 8 -30 26 -63 41 -196 87 -355 207 -355 268 0 57
66 115 290 255 30 18 96 62 145 97 116 83 302 173 435 212 57 17 115 37 127
46 30 19 82 91 90 123 9 39 85 199 131 278 90 154 226 305 352 389 68 46 90
53 90 29z"/>
<path d="M1555 2049 c-85 -12 -174 -43 -295 -104 -58 -29 -140 -63 -182 -76
l-78 -22 0 -61 c0 -57 2 -63 28 -78 15 -9 61 -47 103 -86 136 -123 279 -174
496 -174 160 0 269 26 370 87 96 59 150 75 268 83 l100 7 -2 40 c-6 82 -33
136 -102 205 -72 71 -119 100 -226 137 -141 48 -322 64 -480 42z"/>
</g>
</svg>
