<svg version="1.1" id="Layer_1" xmlns="http://www.w3.org/2000/svg" xmlns:xlink="http://www.w3.org/1999/xlink" x="0px" y="0px"
	 width="100%" viewBox="0 0 1080 1080" enable-background="new 0 0 1080 1080" xml:space="preserve">
<path fill="#FF5757" opacity="1.000000" stroke="none" 
	d="
M478.000000,1081.000000 
	C318.684998,1081.000000 159.869995,1081.000000 1.027493,1081.000000 
	C1.027493,721.059875 1.027493,361.119751 1.027493,1.089806 
	C360.898590,1.089806 720.797180,1.089806 1080.847900,1.089806 
	C1080.847900,360.999939 1080.847900,720.999939 1080.847900,1081.000000 
	C880.119324,1081.000000 679.309631,1081.000000 478.000000,1081.000000 
M681.318542,756.163696 
	C688.001526,758.489990 694.687378,758.962646 701.250366,755.848450 
	C707.517639,752.874573 711.267700,746.220886 710.632874,739.553284 
	C710.008545,732.997253 705.882263,727.899719 699.504517,726.286987 
	C693.267761,724.709900 687.286316,725.405029 681.794983,729.054871 
	C674.750732,733.736877 672.629333,741.100037 669.929260,748.596802 
	C667.463440,755.443298 663.151611,761.726501 659.019775,767.828918 
	C656.913513,770.939575 653.207092,771.672607 649.744751,769.057068 
	C643.656982,764.457825 642.366272,752.080811 647.248169,746.384705 
	C649.738831,743.478638 652.188293,740.514526 654.394531,737.391602 
	C662.206543,726.333923 668.067627,714.500244 667.951172,700.534912 
	C667.904419,694.922852 666.420776,689.838501 660.713318,687.375793 
	C655.696594,685.211182 648.881104,687.060486 645.220764,692.451050 
	C642.194824,696.907166 639.210022,702.018860 638.353149,707.195251 
	C636.294983,719.628967 635.403137,732.262573 634.222046,744.832581 
	C633.298645,754.658691 628.284241,762.306335 621.603760,769.013611 
	C619.181641,771.445496 615.974854,771.121948 614.479248,767.977783 
	C611.354431,761.408569 608.373962,754.802979 612.835266,747.310547 
	C616.228210,741.612305 619.036865,735.515381 621.596619,729.383423 
	C625.770325,719.384888 629.570435,709.209656 629.143066,698.085266 
	C628.895264,691.632996 625.922058,687.340332 621.138428,686.160706 
	C615.649597,684.807190 610.058960,686.859619 607.247742,692.520386 
	C604.847290,697.354065 603.207581,702.716370 602.154785,708.027832 
	C601.007324,713.817322 600.923279,719.817627 600.374634,725.736694 
	C586.479126,723.602051 579.335815,727.300537 572.742554,739.905457 
	C572.051147,741.227234 571.545532,742.644836 570.909485,743.997070 
	C567.231934,751.816406 563.702759,759.713684 559.715698,767.372314 
	C558.935852,768.870239 556.362915,769.434692 554.617004,770.429749 
	C553.869263,768.714661 552.902405,767.055054 552.449280,765.265320 
	C552.138000,764.035583 552.516541,762.623291 552.626648,761.295959 
	C553.204712,754.324158 554.017029,747.363281 554.329041,740.379883 
	C554.773621,730.431580 547.652527,724.639832 538.079773,727.449219 
	C534.557678,728.482910 531.480896,731.103027 528.279419,733.123901 
	C527.153137,733.834900 526.261169,734.917236 524.624390,736.412842 
	C524.624390,734.094360 525.074524,732.540161 524.523254,731.535156 
	C523.600647,729.852905 522.039124,728.521179 520.746460,727.041931 
	C519.156494,728.437439 516.965576,729.548706 516.135498,731.303711 
	C515.192810,733.296753 515.148804,735.882019 515.267944,738.181213 
	C515.785217,748.163635 511.544403,756.670776 506.932190,764.974854 
	C505.611969,767.351929 502.953003,768.985413 500.907867,770.959839 
	C499.633698,768.273499 497.280731,765.588074 497.278625,762.900696 
	C497.270874,753.102051 497.960266,743.297180 498.579193,733.506775 
	C498.784485,730.259033 499.721649,726.625854 495.120270,726.201294 
	C490.720337,725.795349 490.348511,729.422791 490.058685,732.697449 
	C489.999969,733.361206 490.034119,734.040527 489.908234,734.690002 
	C488.270691,743.138794 487.439392,751.874023 484.617615,759.909485 
	C483.156281,764.070923 478.699860,767.960754 474.625946,770.233093 
	C469.157928,773.283020 464.726990,769.946899 464.689911,763.685913 
	C464.670258,760.370239 465.118744,757.043884 465.477905,753.735535 
	C466.160767,747.445679 467.130707,741.180298 467.605072,734.876465 
	C468.014832,729.430603 465.342682,725.151794 461.080353,724.433899 
	C459.407837,724.152344 457.033203,724.843689 455.860535,725.992493 
	C455.160370,726.678345 456.080444,729.130981 456.433655,730.754272 
	C457.041138,733.545898 458.486847,736.352661 458.323700,739.077881 
	C457.807129,747.706177 456.265625,756.283813 455.958466,764.910950 
	C455.640961,773.829102 461.930298,779.497192 470.836365,779.358704 
	C477.139130,779.260681 481.917053,776.230042 485.810913,771.521606 
	C486.815399,770.306885 487.811646,769.085327 489.112671,767.500183 
	C491.409180,773.044739 492.994812,778.621399 499.724609,779.298767 
	C506.088104,779.939331 509.043396,774.831604 513.003906,770.351318 
	C513.241516,772.028076 513.377991,772.670044 513.416504,773.317810 
	C513.598022,776.366516 514.184387,779.209045 518.111145,778.968689 
	C522.012878,778.729980 522.145874,775.739136 522.242310,772.767334 
	C522.382751,768.438843 522.425354,764.092346 522.875854,759.791870 
	C523.713196,751.797485 526.508240,744.555603 532.371460,738.847229 
	C535.169434,736.123230 538.535767,733.653320 542.624634,735.622131 
	C546.577576,737.525513 545.569275,741.456177 545.338684,744.933655 
	C544.810608,752.897583 544.078064,760.862854 543.978760,768.834473 
	C543.923645,773.250610 546.199402,776.891724 550.698364,778.415466 
	C555.261169,779.960815 559.329468,778.733765 562.525513,775.275574 
	C564.754089,772.864075 566.578613,770.079163 568.583435,767.460876 
	C574.258423,781.694641 591.103088,785.014709 603.823059,766.619690 
	C604.223450,767.217285 604.651550,767.705872 604.914978,768.271301 
	C610.975647,781.280273 620.619141,782.572876 629.778137,771.499268 
	C631.948120,768.875671 633.748962,765.946716 635.832764,762.998108 
	C643.750305,783.192505 660.088745,784.767883 671.543152,764.964783 
	C678.053650,774.841797 680.695618,777.169128 687.472168,778.996460 
	C704.614380,783.619019 726.580017,767.795593 727.794922,749.792236 
	C727.881592,748.507751 726.744324,746.628357 725.620239,745.958984 
	C724.900940,745.530579 722.773621,746.485168 721.968445,747.416931 
	C720.814941,748.751526 720.522583,750.800537 719.459045,752.247986 
	C715.566040,757.546204 712.376587,763.861389 707.333252,767.713379 
	C695.735474,776.571777 682.102600,771.163940 679.969116,756.812622 
	C680.147461,756.567017 680.325806,756.321411 681.318542,756.163696 
M753.890564,501.753082 
	C752.749634,497.758728 752.116882,493.528046 750.386841,489.807678 
	C737.357849,461.789154 715.014465,445.086182 684.813538,441.379181 
	C661.762695,438.549805 638.275696,438.894012 614.972900,438.594330 
	C587.485107,438.240784 559.986694,438.773712 532.492798,438.807526 
	C515.780090,438.828064 502.728546,431.543152 492.811157,418.310455 
	C485.497620,408.552063 481.277191,397.388031 478.041901,385.773529 
	C477.767242,384.787567 477.250366,383.869080 476.608002,382.359985 
	C471.758728,388.282928 467.442993,393.770294 462.898041,399.060791 
	C453.112732,410.451324 440.767487,410.553009 430.798035,399.368408 
	C428.946533,397.291229 427.414032,394.929657 425.548523,392.452637 
	C416.187103,399.932526 405.036072,400.892365 393.618622,401.668213 
	C394.510040,406.965607 395.392883,411.504913 396.023071,416.078979 
	C398.848602,436.587830 395.700470,456.532715 390.587280,476.370270 
	C382.549133,507.555664 392.639496,534.612122 419.308716,552.550415 
	C428.949097,559.034668 439.430634,564.261719 449.446930,570.199707 
	C451.396423,571.355469 453.632050,572.807739 454.601349,574.703247 
	C458.864197,583.039673 456.260254,595.692932 449.356903,602.333252 
	C447.801422,603.829468 446.103668,605.272400 444.916748,607.039062 
	C441.771759,611.720276 443.190704,614.792664 448.786438,614.973450 
	C457.586914,615.257690 466.408966,614.912903 475.205841,615.251648 
	C479.986267,615.435730 483.166382,613.475525 484.325897,609.219360 
	C485.931641,603.325195 487.919220,597.201904 487.772308,591.225220 
	C487.314453,572.596191 486.310394,553.958252 484.763794,535.386597 
	C483.791901,523.716187 475.978821,518.815186 463.854309,520.456970 
	C462.066406,520.699036 458.749115,519.517029 458.358917,518.288757 
	C457.344604,515.096130 460.201538,514.329895 462.821625,513.816589 
	C478.706360,510.704712 490.388885,519.426697 491.996033,535.791626 
	C493.165985,547.704956 494.149811,559.636536 495.267487,572.128418 
	C500.763947,572.589661 506.183594,573.125000 511.614807,573.486511 
	C535.816284,575.097290 559.513611,573.602295 581.904602,562.856140 
	C586.649475,560.578918 591.923950,559.254456 597.079590,558.009277 
	C622.621887,551.840454 648.577942,551.914246 674.603149,553.147278 
	C679.529663,553.380676 683.411011,554.844238 686.300110,559.300781 
	C689.000061,563.465393 692.636963,567.013184 695.742859,570.926575 
	C699.624695,575.817932 704.694702,576.555359 710.349854,575.888367 
	C710.545715,574.955933 710.720825,574.482056 710.732910,574.004028 
	C710.795593,571.511719 711.242493,568.673401 714.295410,569.335693 
	C715.749878,569.651245 717.503174,572.546692 717.601196,574.355957 
	C717.824402,578.472595 717.391357,582.687744 716.704041,586.775330 
	C715.781921,592.259277 714.162231,597.755066 709.217224,600.955872 
	C705.913025,603.094604 704.702148,606.015747 706.271851,608.836060 
	C707.177002,610.462280 710.793640,611.465332 713.071838,611.281982 
	C721.192505,610.628479 729.285034,609.493774 737.346436,608.266785 
	C748.505737,606.568176 750.831970,603.952576 751.874390,592.592529 
	C752.056763,590.605286 752.269531,588.566101 752.031799,586.603821 
	C750.292786,572.248169 748.396179,557.911621 746.684143,543.552979 
	C746.463501,541.702942 746.343689,539.265442 747.318665,537.939148 
	C755.232910,527.173950 755.823303,515.144592 753.890564,501.753082 
M470.668762,324.824585 
	C463.304565,318.239441 454.609894,314.238403 445.135651,311.824097 
	C442.053284,311.038605 440.282104,309.676605 440.140594,306.101501 
	C439.760040,296.484802 437.609711,294.562012 428.122681,296.117462 
	C411.140442,298.901733 394.924805,304.334839 379.119507,311.095886 
	C369.620789,315.159149 365.245270,322.146912 366.394958,332.392059 
	C367.551453,342.698029 363.605865,350.962372 356.394348,357.866547 
	C351.048676,362.984406 345.435303,367.822632 339.941193,372.785431 
	C342.242310,373.396027 344.340088,373.117035 346.194489,372.291382 
	C355.562836,368.120178 364.491699,367.203918 373.572754,373.570374 
	C381.712616,379.276978 386.673737,378.830750 394.846222,372.310211 
	C401.273895,367.181793 407.362335,361.717072 416.035004,363.294434 
	C416.495850,362.466461 416.642365,362.324646 416.642944,362.182281 
	C416.646301,361.351501 416.605774,360.520691 416.597534,359.689728 
	C416.455505,345.369598 420.827515,332.532471 429.378296,321.102539 
	C430.848053,319.137909 432.512054,316.498901 435.402710,318.610229 
	C438.514099,320.882721 436.473389,323.233795 434.809692,325.415863 
	C418.982635,346.174530 420.410919,372.348297 434.647949,392.918030 
	C441.709106,403.119995 450.350983,403.046143 458.317719,393.484558 
	C465.668579,384.662231 473.296478,376.065918 480.472626,367.106018 
	C482.320312,364.799133 483.714233,361.566711 483.968262,358.642334 
	C485.104004,345.567413 480.301880,334.558228 470.668762,324.824585 
M373.037506,766.894043 
	C373.016418,774.403381 376.674774,778.984802 384.023743,779.705139 
	C387.242584,780.020630 391.797821,780.346558 393.654846,778.529907 
	C401.368011,770.984558 408.493988,775.154419 415.892334,778.376038 
	C416.044800,778.442383 416.202057,778.500732 416.361511,778.547729 
	C435.268982,784.114319 452.841431,768.266357 449.448822,748.790405 
	C447.667572,738.564636 441.403503,732.532166 431.126587,729.522766 
	C440.877869,724.115479 444.584595,716.242676 442.600555,706.152649 
	C440.553345,695.741333 433.398132,689.609802 423.523407,687.203430 
	C418.144257,685.892700 412.264679,685.602234 406.734863,686.136292 
	C390.034546,687.749207 377.886841,700.659851 378.110352,715.969299 
	C378.195099,721.774353 379.605835,727.370422 384.085754,731.339050 
	C385.404266,732.507141 388.467194,732.613342 390.257599,731.942932 
	C391.100311,731.627380 391.040985,728.313477 390.967010,726.374451 
	C390.926605,725.316406 389.966614,724.308167 389.481323,723.250000 
	C385.339539,714.219177 387.856506,704.535339 396.062164,699.014648 
	C403.839722,693.781921 412.389038,692.536377 421.346802,695.339905 
	C429.177673,697.790710 433.815552,704.053589 433.787933,711.612488 
	C433.762146,718.669617 429.432831,723.764526 421.226898,726.395874 
	C420.751129,726.548462 420.123718,726.563904 419.828186,726.884277 
	C418.584839,728.231995 416.218353,730.096252 416.527039,730.984436 
	C417.086792,732.595093 419.070435,734.165283 420.808105,734.802673 
	C423.251038,735.698792 426.101807,735.427917 428.620331,736.182800 
	C437.498993,738.843811 441.963684,747.358459 439.918915,757.308655 
	C437.947479,766.902039 430.500427,772.635132 421.092163,770.906616 
	C416.192749,770.006409 411.568237,767.610046 406.618896,765.816772 
	C407.253601,763.903320 407.585175,762.982971 407.865356,762.047241 
	C412.983612,744.952393 412.912781,727.555481 410.737640,710.068298 
	C410.383148,707.218262 409.364441,704.091614 405.615906,704.532654 
	C401.990143,704.959167 401.554657,707.950562 401.756744,711.007324 
	C402.020477,714.996826 402.344757,718.983093 402.546204,722.975647 
	C403.185425,735.644836 402.503448,748.170898 398.682648,760.380371 
	C380.799316,756.265381 377.035126,757.133362 373.037506,766.894043 
M407.565002,393.044678 
	C410.248138,392.198212 413.040955,391.597382 415.593170,390.457733 
	C422.351562,387.440002 422.548279,386.761658 420.199829,379.749023 
	C419.673279,378.176666 419.028870,376.587738 418.860260,374.962677 
	C418.456940,371.075897 415.886475,369.848724 412.675018,370.275391 
	C410.161652,370.609314 407.566040,371.598846 405.394135,372.929138 
	C402.151672,374.915161 399.315155,377.550293 396.190338,379.744659 
	C387.625458,385.759186 378.812805,386.282013 370.344421,379.848907 
	C363.010040,374.277283 355.892273,375.283813 348.398743,379.349426 
	C349.825317,388.700165 342.667816,394.083313 337.509949,401.490173 
	C341.993469,401.490173 345.682220,401.994659 349.182251,401.395813 
	C359.800385,399.579102 370.290405,396.967590 380.936432,395.374542 
	C389.454834,394.099792 398.128204,393.860931 407.565002,393.044678 
M673.792908,564.100830 
	C676.335632,573.292175 674.139099,581.175293 667.295532,587.802490 
	C666.584839,588.490723 665.686707,589.265808 665.480408,590.142822 
	C664.822449,592.940491 663.516846,596.119446 664.326233,598.523254 
	C664.792053,599.906555 668.929016,600.864075 671.293274,600.654846 
	C680.561951,599.834595 689.803040,598.612976 699.015137,597.270996 
	C706.637512,596.160645 709.701172,592.053894 709.599426,583.312073 
	C699.559143,583.823792 692.280823,579.065125 686.780151,570.911987 
	C684.649475,567.753845 682.186462,564.738220 679.437805,562.115784 
	C678.204712,560.939331 675.897400,560.888794 674.077515,560.327332 
	C673.915222,561.319519 673.752930,562.311646 673.792908,564.100830 
M438.059937,604.834961 
	C439.971039,602.560486 441.557251,599.864685 443.855438,598.092041 
	C450.239044,593.168213 450.734741,586.277222 448.339203,580.064148 
	C446.907959,576.352051 441.701080,574.095642 438.191406,571.184937 
	C437.197296,573.792297 437.202118,575.264954 437.399170,576.711548 
	C438.631805,585.760315 433.798584,591.768494 427.516937,597.275024 
	C424.974701,599.503601 423.035095,602.683105 425.841736,605.956970 
	C427.953094,608.419800 435.809509,607.870239 438.059937,604.834961 
M340.278595,385.912537 
	C341.390961,383.974579 342.740051,381.668915 339.512451,380.769196 
	C336.062775,379.807617 332.409119,379.300049 328.835632,379.252045 
	C327.919861,379.239716 325.975403,381.924713 326.209930,382.997406 
	C327.200226,387.526062 328.835052,391.913788 330.234161,396.353058 
	C330.847961,396.409485 331.461761,396.465942 332.075562,396.522369 
	C334.703491,393.197998 337.331421,389.873657 340.278595,385.912537 
z"/>
<path fill="#FFFEFE" opacity="1.000000" stroke="none" 
	d="
M753.949463,502.179840 
	C755.823303,515.144592 755.232910,527.173950 747.318665,537.939148 
	C746.343689,539.265442 746.463501,541.702942 746.684143,543.552979 
	C748.396179,557.911621 750.292786,572.248169 752.031799,586.603821 
	C752.269531,588.566101 752.056763,590.605286 751.874390,592.592529 
	C750.831970,603.952576 748.505737,606.568176 737.346436,608.266785 
	C729.285034,609.493774 721.192505,610.628479 713.071838,611.281982 
	C710.793640,611.465332 707.177002,610.462280 706.271851,608.836060 
	C704.702148,606.015747 705.913025,603.094604 709.217224,600.955872 
	C714.162231,597.755066 715.781921,592.259277 716.704041,586.775330 
	C717.391357,582.687744 717.824402,578.472595 717.601196,574.355957 
	C717.503174,572.546692 715.749878,569.651245 714.295410,569.335693 
	C711.242493,568.673401 710.795593,571.511719 710.732910,574.004028 
	C710.720825,574.482056 710.545715,574.955933 710.349854,575.888367 
	C704.694702,576.555359 699.624695,575.817932 695.742859,570.926575 
	C692.636963,567.013184 689.000061,563.465393 686.300110,559.300781 
	C683.411011,554.844238 679.529663,553.380676 674.603149,553.147278 
	C648.577942,551.914246 622.621887,551.840454 597.079590,558.009277 
	C591.923950,559.254456 586.649475,560.578918 581.904602,562.856140 
	C559.513611,573.602295 535.816284,575.097290 511.614807,573.486511 
	C506.183594,573.125000 500.763947,572.589661 495.267487,572.128418 
	C494.149811,559.636536 493.165985,547.704956 491.996033,535.791626 
	C490.388885,519.426697 478.706360,510.704712 462.821625,513.816589 
	C460.201538,514.329895 457.344604,515.096130 458.358917,518.288757 
	C458.749115,519.517029 462.066406,520.699036 463.854309,520.456970 
	C475.978821,518.815186 483.791901,523.716187 484.763794,535.386597 
	C486.310394,553.958252 487.314453,572.596191 487.772308,591.225220 
	C487.919220,597.201904 485.931641,603.325195 484.325897,609.219360 
	C483.166382,613.475525 479.986267,615.435730 475.205841,615.251648 
	C466.408966,614.912903 457.586914,615.257690 448.786438,614.973450 
	C443.190704,614.792664 441.771759,611.720276 444.916748,607.039062 
	C446.103668,605.272400 447.801422,603.829468 449.356903,602.333252 
	C456.260254,595.692932 458.864197,583.039673 454.601349,574.703247 
	C453.632050,572.807739 451.396423,571.355469 449.446930,570.199707 
	C439.430634,564.261719 428.949097,559.034668 419.308716,552.550415 
	C392.639496,534.612122 382.549133,507.555664 390.587280,476.370270 
	C395.700470,456.532715 398.848602,436.587830 396.023071,416.078979 
	C395.392883,411.504913 394.510040,406.965607 393.618622,401.668213 
	C405.036072,400.892365 416.187103,399.932526 425.548523,392.452637 
	C427.414032,394.929657 428.946533,397.291229 430.798035,399.368408 
	C440.767487,410.553009 453.112732,410.451324 462.898041,399.060791 
	C467.442993,393.770294 471.758728,388.282928 476.608002,382.359985 
	C477.250366,383.869080 477.767242,384.787567 478.041901,385.773529 
	C481.277191,397.388031 485.497620,408.552063 492.811157,418.310455 
	C502.728546,431.543152 515.780090,438.828064 532.492798,438.807526 
	C559.986694,438.773712 587.485107,438.240784 614.972900,438.594330 
	C638.275696,438.894012 661.762695,438.549805 684.813538,441.379181 
	C715.014465,445.086182 737.357849,461.789154 750.386841,489.807678 
	C752.116882,493.528046 752.749634,497.758728 753.949463,502.179840 
z"/>
<path fill="#FFFAFA" opacity="1.000000" stroke="none" 
	d="
M679.405640,757.527954 
	C682.102600,771.163940 695.735474,776.571777 707.333252,767.713379 
	C712.376587,763.861389 715.566040,757.546204 719.459045,752.247986 
	C720.522583,750.800537 720.814941,748.751526 721.968445,747.416931 
	C722.773621,746.485168 724.900940,745.530579 725.620239,745.958984 
	C726.744324,746.628357 727.881592,748.507751 727.794922,749.792236 
	C726.580017,767.795593 704.614380,783.619019 687.472168,778.996460 
	C680.695618,777.169128 678.053650,774.841797 671.543152,764.964783 
	C660.088745,784.767883 643.750305,783.192505 635.832764,762.998108 
	C633.748962,765.946716 631.948120,768.875671 629.778137,771.499268 
	C620.619141,782.572876 610.975647,781.280273 604.914978,768.271301 
	C604.651550,767.705872 604.223450,767.217285 603.823059,766.619690 
	C591.103088,785.014709 574.258423,781.694641 568.583496,767.460938 
	C566.578613,770.079163 564.754089,772.864075 562.525513,775.275574 
	C559.329468,778.733765 555.261169,779.960815 550.698364,778.415466 
	C546.199402,776.891724 543.923645,773.250610 543.978760,768.834473 
	C544.078064,760.862854 544.810608,752.897583 545.338684,744.933655 
	C545.569275,741.456177 546.577576,737.525513 542.624634,735.622131 
	C538.535767,733.653320 535.169434,736.123230 532.371460,738.847229 
	C526.508240,744.555603 523.713196,751.797485 522.875854,759.791870 
	C522.425354,764.092346 522.382751,768.438843 522.242310,772.767334 
	C522.145874,775.739136 522.012878,778.729980 518.111145,778.968689 
	C514.184387,779.209045 513.598022,776.366516 513.416504,773.317810 
	C513.377991,772.670044 513.241516,772.028076 513.003906,770.351318 
	C509.043396,774.831604 506.088104,779.939331 499.724609,779.298767 
	C492.994812,778.621399 491.409180,773.044739 489.112671,767.500183 
	C487.811646,769.085327 486.815399,770.306885 485.810913,771.521606 
	C481.917053,776.230042 477.139130,779.260681 470.836365,779.358704 
	C461.930298,779.497192 455.640961,773.829102 455.958466,764.910950 
	C456.265625,756.283813 457.807129,747.706177 458.323700,739.077881 
	C458.486847,736.352661 457.041138,733.545898 456.433655,730.754272 
	C456.080444,729.130981 455.160370,726.678345 455.860535,725.992493 
	C457.033203,724.843689 459.407837,724.152344 461.080353,724.433899 
	C465.342682,725.151794 468.014832,729.430603 467.605072,734.876465 
	C467.130707,741.180298 466.160767,747.445679 465.477905,753.735535 
	C465.118744,757.043884 464.670258,760.370239 464.689911,763.685913 
	C464.726990,769.946899 469.157928,773.283020 474.625946,770.233093 
	C478.699860,767.960754 483.156281,764.070923 484.617615,759.909485 
	C487.439392,751.874023 488.270691,743.138794 489.908234,734.690002 
	C490.034119,734.040527 489.999969,733.361206 490.058685,732.697449 
	C490.348511,729.422791 490.720337,725.795349 495.120270,726.201294 
	C499.721649,726.625854 498.784485,730.259033 498.579193,733.506775 
	C497.960266,743.297180 497.270874,753.102051 497.278625,762.900696 
	C497.280731,765.588074 499.633698,768.273499 500.907898,770.959839 
	C502.953003,768.985413 505.611969,767.351929 506.932190,764.974854 
	C511.544403,756.670776 515.785217,748.163635 515.267944,738.181213 
	C515.148804,735.882019 515.192810,733.296753 516.135498,731.303711 
	C516.965576,729.548706 519.156494,728.437439 520.746460,727.041931 
	C522.039124,728.521179 523.600647,729.852905 524.523254,731.535156 
	C525.074524,732.540161 524.624390,734.094360 524.624390,736.412842 
	C526.261169,734.917236 527.153137,733.834900 528.279419,733.123901 
	C531.480896,731.103027 534.557678,728.482910 538.079773,727.449219 
	C547.652527,724.639832 554.773621,730.431580 554.329041,740.379883 
	C554.017029,747.363281 553.204712,754.324158 552.626648,761.295959 
	C552.516541,762.623291 552.138000,764.035583 552.449280,765.265320 
	C552.902405,767.055054 553.869263,768.714661 554.617004,770.429749 
	C556.362915,769.434692 558.935852,768.870239 559.715698,767.372314 
	C563.702759,759.713684 567.231934,751.816406 570.909485,743.997070 
	C571.545532,742.644836 572.051147,741.227234 572.742554,739.905457 
	C579.335815,727.300537 586.479126,723.602051 600.374634,725.736694 
	C600.923279,719.817627 601.007324,713.817322 602.154785,708.027832 
	C603.207581,702.716370 604.847290,697.354065 607.247742,692.520386 
	C610.058960,686.859619 615.649597,684.807190 621.138428,686.160706 
	C625.922058,687.340332 628.895264,691.632996 629.143066,698.085266 
	C629.570435,709.209656 625.770325,719.384888 621.596619,729.383423 
	C619.036865,735.515381 616.228210,741.612305 612.835266,747.310547 
	C608.373962,754.802979 611.354431,761.408569 614.479248,767.977783 
	C615.974854,771.121948 619.181641,771.445496 621.603760,769.013611 
	C628.284241,762.306335 633.298645,754.658691 634.222046,744.832581 
	C635.403137,732.262573 636.294983,719.628967 638.353149,707.195251 
	C639.210022,702.018860 642.194824,696.907166 645.220764,692.451050 
	C648.881104,687.060486 655.696594,685.211182 660.713318,687.375793 
	C666.420776,689.838501 667.904419,694.922852 667.951172,700.534912 
	C668.067627,714.500244 662.206543,726.333923 654.394531,737.391602 
	C652.188293,740.514526 649.738831,743.478638 647.248169,746.384705 
	C642.366272,752.080811 643.656982,764.457825 649.744751,769.057068 
	C653.207092,771.672607 656.913513,770.939575 659.019775,767.828918 
	C663.151611,761.726501 667.463440,755.443298 669.929260,748.596802 
	C672.629333,741.100037 674.750732,733.736877 681.794983,729.054871 
	C687.286316,725.405029 693.267761,724.709900 699.504517,726.286987 
	C705.882263,727.899719 710.008545,732.997253 710.632874,739.553284 
	C711.267700,746.220886 707.517639,752.874573 701.250366,755.848450 
	C694.687378,758.962646 688.001526,758.489990 680.652039,755.982056 
	C679.792236,756.376282 679.598938,756.952148 679.405640,757.527954 
M577.667725,765.358154 
	C581.194153,771.963379 586.790100,773.035950 592.618347,767.724304 
	C600.914734,760.163391 603.168701,750.284302 601.717102,739.593628 
	C600.908386,733.637817 595.591492,731.017395 590.060059,733.668274 
	C587.346802,734.968567 584.756287,737.187439 582.961975,739.619080 
	C577.493042,747.030945 575.728882,755.476135 577.667725,765.358154 
M643.676819,729.028870 
	C643.475342,731.923889 643.273865,734.818909 643.035034,738.250122 
	C651.369263,730.437744 659.024475,713.447571 658.975342,702.545593 
	C658.964172,700.058533 657.969055,696.041138 656.365417,695.405334 
	C652.669556,693.940186 651.052795,697.725220 649.657471,700.510010 
	C648.549377,702.721375 647.529785,705.087524 647.082092,707.498413 
	C645.810181,714.348328 644.851257,721.256287 643.676819,729.028870 
M696.000916,734.000671 
	C688.161011,733.742554 682.700073,737.218018 680.467468,744.332153 
	C680.080505,745.565430 680.993103,748.451111 681.660461,748.569397 
	C686.125183,749.360291 690.742432,750.239990 695.198608,749.841858 
	C699.098694,749.493469 701.366638,746.144836 701.906738,742.187683 
	C702.451904,738.192993 700.582275,735.518066 696.000916,734.000671 
M620.523621,697.248779 
	C619.240234,692.850281 617.031921,693.440369 614.635071,696.270874 
	C613.803772,697.252625 613.221741,698.532715 612.812744,699.771362 
	C608.875244,711.696045 609.187866,723.985474 609.162292,737.222351 
	C614.497742,729.236023 620.420898,708.418640 620.523621,697.248779 
z"/>
<path fill="#FFFEFE" opacity="1.000000" stroke="none" 
	d="
M470.934875,325.059875 
	C480.301880,334.558228 485.104004,345.567413 483.968262,358.642334 
	C483.714233,361.566711 482.320312,364.799133 480.472626,367.106018 
	C473.296478,376.065918 465.668579,384.662231 458.317719,393.484558 
	C450.350983,403.046143 441.709106,403.119995 434.647949,392.918030 
	C420.410919,372.348297 418.982635,346.174530 434.809692,325.415863 
	C436.473389,323.233795 438.514099,320.882721 435.402710,318.610229 
	C432.512054,316.498901 430.848053,319.137909 429.378296,321.102539 
	C420.827515,332.532471 416.455505,345.369598 416.597534,359.689728 
	C416.605774,360.520691 416.646301,361.351501 416.642944,362.182281 
	C416.642365,362.324646 416.495850,362.466461 416.035004,363.294434 
	C407.362335,361.717072 401.273895,367.181793 394.846222,372.310211 
	C386.673737,378.830750 381.712616,379.276978 373.572754,373.570374 
	C364.491699,367.203918 355.562836,368.120178 346.194489,372.291382 
	C344.340088,373.117035 342.242310,373.396027 339.941193,372.785431 
	C345.435303,367.822632 351.048676,362.984406 356.394348,357.866547 
	C363.605865,350.962372 367.551453,342.698029 366.394958,332.392059 
	C365.245270,322.146912 369.620789,315.159149 379.119507,311.095886 
	C394.924805,304.334839 411.140442,298.901733 428.122681,296.117462 
	C437.609711,294.562012 439.760040,296.484802 440.140594,306.101501 
	C440.282104,309.676605 442.053284,311.038605 445.135651,311.824097 
	C454.609894,314.238403 463.304565,318.239441 470.934875,325.059875 
M387.451233,338.882965 
	C387.960907,332.323975 384.686462,328.316132 380.352173,330.615265 
	C378.326263,331.689941 375.965759,335.022430 376.280609,336.910797 
	C376.701050,339.432220 379.252106,342.054077 381.584656,343.537689 
	C382.335327,344.015228 385.288391,341.030243 387.451233,338.882965 
M369.210602,354.184967 
	C371.070648,355.153412 372.885254,356.701050 374.809387,356.851990 
	C375.808258,356.930328 377.764343,354.611298 377.894257,353.242981 
	C378.028198,351.832642 376.830841,349.746887 375.577057,348.865295 
	C372.754181,346.880371 370.115295,348.850067 369.210602,354.184967 
z"/>
<path fill="#FFFAFA" opacity="1.000000" stroke="none" 
	d="
M373.097534,766.493408 
	C377.035126,757.133362 380.799316,756.265381 398.682648,760.380371 
	C402.503448,748.170898 403.185425,735.644836 402.546204,722.975647 
	C402.344757,718.983093 402.020477,714.996826 401.756744,711.007324 
	C401.554657,707.950562 401.990143,704.959167 405.615906,704.532654 
	C409.364441,704.091614 410.383148,707.218262 410.737640,710.068298 
	C412.912781,727.555481 412.983612,744.952393 407.865356,762.047241 
	C407.585175,762.982971 407.253601,763.903320 406.618896,765.816772 
	C411.568237,767.610046 416.192749,770.006409 421.092163,770.906616 
	C430.500427,772.635132 437.947479,766.902039 439.918915,757.308655 
	C441.963684,747.358459 437.498993,738.843811 428.620331,736.182800 
	C426.101807,735.427917 423.251038,735.698792 420.808105,734.802673 
	C419.070435,734.165283 417.086792,732.595093 416.527039,730.984436 
	C416.218353,730.096252 418.584839,728.231995 419.828186,726.884277 
	C420.123718,726.563904 420.751129,726.548462 421.226898,726.395874 
	C429.432831,723.764526 433.762146,718.669617 433.787933,711.612488 
	C433.815552,704.053589 429.177673,697.790710 421.346802,695.339905 
	C412.389038,692.536377 403.839722,693.781921 396.062164,699.014648 
	C387.856506,704.535339 385.339539,714.219177 389.481323,723.250000 
	C389.966614,724.308167 390.926605,725.316406 390.967010,726.374451 
	C391.040985,728.313477 391.100311,731.627380 390.257599,731.942932 
	C388.467194,732.613342 385.404266,732.507141 384.085754,731.339050 
	C379.605835,727.370422 378.195099,721.774353 378.110352,715.969299 
	C377.886841,700.659851 390.034546,687.749207 406.734863,686.136292 
	C412.264679,685.602234 418.144257,685.892700 423.523407,687.203430 
	C433.398132,689.609802 440.553345,695.741333 442.600555,706.152649 
	C444.584595,716.242676 440.877869,724.115479 431.126587,729.522766 
	C441.403503,732.532166 447.667572,738.564636 449.448822,748.790405 
	C452.841431,768.266357 435.268982,784.114319 416.361511,778.547729 
	C416.202057,778.500732 416.044800,778.442383 415.892334,778.376038 
	C408.493988,775.154419 401.368011,770.984558 393.654846,778.529907 
	C391.797821,780.346558 387.242584,780.020630 384.023743,779.705139 
	C376.674774,778.984802 373.016418,774.403381 373.097534,766.493408 
M384.895233,765.610168 
	C383.818573,766.803406 382.741913,767.996643 381.665283,769.189880 
	C383.076538,770.113342 384.597565,771.932861 385.876556,771.776245 
	C388.649200,771.436707 391.298004,770.086243 393.997467,769.149231 
	C393.874329,768.503540 393.751221,767.857849 393.628082,767.212158 
	C390.974670,766.631470 388.321259,766.050781 384.895233,765.610168 
z"/>
<path fill="#FFFBFB" opacity="1.000000" stroke="none" 
	d="
M407.148926,393.103516 
	C398.128204,393.860931 389.454834,394.099792 380.936432,395.374542 
	C370.290405,396.967590 359.800385,399.579102 349.182251,401.395813 
	C345.682220,401.994659 341.993469,401.490173 337.509949,401.490173 
	C342.667816,394.083313 349.825317,388.700165 348.398743,379.349426 
	C355.892273,375.283813 363.010040,374.277283 370.344421,379.848907 
	C378.812805,386.282013 387.625458,385.759186 396.190338,379.744659 
	C399.315155,377.550293 402.151672,374.915161 405.394135,372.929138 
	C407.566040,371.598846 410.161652,370.609314 412.675018,370.275391 
	C415.886475,369.848724 418.456940,371.075897 418.860260,374.962677 
	C419.028870,376.587738 419.673279,378.176666 420.199829,379.749023 
	C422.548279,386.761658 422.351562,387.440002 415.593170,390.457733 
	C413.040955,391.597382 410.248138,392.198212 407.148926,393.103516 
z"/>
<path fill="#FFFCFC" opacity="1.000000" stroke="none" 
	d="
M673.691772,563.702332 
	C673.752930,562.311646 673.915222,561.319519 674.077515,560.327332 
	C675.897400,560.888794 678.204712,560.939331 679.437805,562.115784 
	C682.186462,564.738220 684.649475,567.753845 686.780151,570.911987 
	C692.280823,579.065125 699.559143,583.823792 709.599426,583.312073 
	C709.701172,592.053894 706.637512,596.160645 699.015137,597.270996 
	C689.803040,598.612976 680.561951,599.834595 671.293274,600.654846 
	C668.929016,600.864075 664.792053,599.906555 664.326233,598.523254 
	C663.516846,596.119446 664.822449,592.940491 665.480408,590.142822 
	C665.686707,589.265808 666.584839,588.490723 667.295532,587.802490 
	C674.139099,581.175293 676.335632,573.292175 673.691772,563.702332 
z"/>
<path fill="#FFFAFA" opacity="1.000000" stroke="none" 
	d="
M437.928955,605.191406 
	C435.809509,607.870239 427.953094,608.419800 425.841736,605.956970 
	C423.035095,602.683105 424.974701,599.503601 427.516937,597.275024 
	C433.798584,591.768494 438.631805,585.760315 437.399170,576.711548 
	C437.202118,575.264954 437.197296,573.792297 438.191406,571.184937 
	C441.701080,574.095642 446.907959,576.352051 448.339203,580.064148 
	C450.734741,586.277222 450.239044,593.168213 443.855438,598.092041 
	C441.557251,599.864685 439.971039,602.560486 437.928955,605.191406 
z"/>
<path fill="#FFF8F8" opacity="1.000000" stroke="none" 
	d="
M340.118958,386.230896 
	C337.331421,389.873657 334.703491,393.197998 332.075562,396.522369 
	C331.461761,396.465942 330.847961,396.409485 330.234161,396.353058 
	C328.835052,391.913788 327.200226,387.526062 326.209930,382.997406 
	C325.975403,381.924713 327.919861,379.239716 328.835632,379.252045 
	C332.409119,379.300049 336.062775,379.807617 339.512451,380.769196 
	C342.740051,381.668915 341.390961,383.974579 340.118958,386.230896 
z"/>
<path fill="#FF5959" opacity="1.000000" stroke="none" 
	d="
M577.501099,764.970703 
	C575.728882,755.476135 577.493042,747.030945 582.961975,739.619080 
	C584.756287,737.187439 587.346802,734.968567 590.060059,733.668274 
	C595.591492,731.017395 600.908386,733.637817 601.717102,739.593628 
	C603.168701,750.284302 600.914734,760.163391 592.618347,767.724304 
	C586.790100,773.035950 581.194153,771.963379 577.501099,764.970703 
z"/>
<path fill="#FF5C5C" opacity="1.000000" stroke="none" 
	d="
M643.723022,728.585144 
	C644.851257,721.256287 645.810181,714.348328 647.082092,707.498413 
	C647.529785,705.087524 648.549377,702.721375 649.657471,700.510010 
	C651.052795,697.725220 652.669556,693.940186 656.365417,695.405334 
	C657.969055,696.041138 658.964172,700.058533 658.975342,702.545593 
	C659.024475,713.447571 651.369263,730.437744 643.035034,738.250122 
	C643.273865,734.818909 643.475342,731.923889 643.723022,728.585144 
z"/>
<path fill="#FF5B5B" opacity="1.000000" stroke="none" 
	d="
M696.406738,734.076416 
	C700.582275,735.518066 702.451904,738.192993 701.906738,742.187683 
	C701.366638,746.144836 699.098694,749.493469 695.198608,749.841858 
	C690.742432,750.239990 686.125183,749.360291 681.660461,748.569397 
	C680.993103,748.451111 680.080505,745.565430 680.467468,744.332153 
	C682.700073,737.218018 688.161011,733.742554 696.406738,734.076416 
z"/>
<path fill="#FF6161" opacity="1.000000" stroke="none" 
	d="
M620.595581,697.643555 
	C620.420898,708.418640 614.497742,729.236023 609.162292,737.222351 
	C609.187866,723.985474 608.875244,711.696045 612.812744,699.771362 
	C613.221741,698.532715 613.803772,697.252625 614.635071,696.270874 
	C617.031921,693.440369 619.240234,692.850281 620.595581,697.643555 
z"/>
<path fill="#FF5757" opacity="1.000000" stroke="none" 
	d="
M679.687378,757.170288 
	C679.598938,756.952148 679.792236,756.376282 680.244873,755.938110 
	C680.325806,756.321411 680.147461,756.567017 679.687378,757.170288 
z"/>
<path fill="#FF5E5E" opacity="1.000000" stroke="none" 
	d="
M387.342560,339.256134 
	C385.288391,341.030243 382.335327,344.015228 381.584656,343.537689 
	C379.252106,342.054077 376.701050,339.432220 376.280609,336.910797 
	C375.965759,335.022430 378.326263,331.689941 380.352173,330.615265 
	C384.686462,328.316132 387.960907,332.323975 387.342560,339.256134 
z"/>
<path fill="#FF5E5E" opacity="1.000000" stroke="none" 
	d="
M369.124451,353.795715 
	C370.115295,348.850067 372.754181,346.880371 375.577057,348.865295 
	C376.830841,349.746887 378.028198,351.832642 377.894257,353.242981 
	C377.764343,354.611298 375.808258,356.930328 374.809387,356.851990 
	C372.885254,356.701050 371.070648,355.153412 369.124451,353.795715 
z"/>
<path fill="#FF6161" opacity="1.000000" stroke="none" 
	d="
M385.281555,765.540161 
	C388.321259,766.050781 390.974670,766.631470 393.628082,767.212158 
	C393.751221,767.857849 393.874329,768.503540 393.997467,769.149231 
	C391.298004,770.086243 388.649200,771.436707 385.876556,771.776245 
	C384.597565,771.932861 383.076538,770.113342 381.665283,769.189880 
	C382.741913,767.996643 383.818573,766.803406 385.281555,765.540161 
z"/>
</svg>